# Blender 4.0.0
# www.blender.org
o Cube
v 1.000000 1.000000 -1.000000
v 1.000000 -1.000000 -1.000000
v 1.000000 1.000000 1.000000
v 1.000000 -1.000000 1.000000
v -1.000000 1.000000 -1.000000
v -1.000000 -1.000000 -1.000000
v -1.000000 1.000000 1.000000
v -1.000000 -1.000000 1.000000
vn -0.5774 0.5774 -0.5774
vn 0.5774 0.5774 0.5774
vn 0.5774 0.5774 -0.5774
vn -0.5774 -0.5774 0.5774
vn 0.5774 -0.5774 0.5774
vn -0.5774 0.5774 0.5774
vn -0.5774 -0.5774 -0.5774
vn 0.5774 -0.5774 -0.5774
vt 0.000000 1.000000
vt 1.000000 0.000000
vt 1.000000 1.000000
vt 0.000000 0.000000
s 1
f 5/1/1 3/2/2 1/3/3
f 3/3/2 8/4/4 4/2/5
f 7/1/6 6/2/7 8/4/4
f 2/3/8 8/4/4 6/1/7
f 1/3/3 4/4/5 2/2/8
f 5/1/1 2/2/8 6/4/7
f 5/1/1 7/4/6 3/2/2
f 3/3/2 7/1/6 8/4/4
f 7/1/6 5/3/1 6/2/7
f 2/3/8 4/2/5 8/4/4
f 1/3/3 3/1/2 4/4/5
f 5/1/1 1/3/3 2/2/8
